# xmcd CD database file
#
# Track frame offsets:
#	150
#	20603
#	32803
#	52769
#	74171
#	90007
#	103139
#	122655
#	139032
#	158929
#	172998
#	195997
#	220561
#	242194
#	290253
#
# Disc length: 4126 seconds
#
# Revision: 2
# Processed by: cddbd v1.5.1PL0 Copyright (c) Steve Scherf et al.
# Submitted via: CDex 1.50
#
DISCID=c8101c0f
DTITLE=Bran - Tír na nÓg - Tündérzene (Disk 1)
DYEAR=1999
DGENRE=
TTITLE0=Déirín Dé
TTITLE1=Cáit Ní Dhuibhir
TTITLE2=Amhrán na Leabhar
TTITLE3=Bruach na Carraige Báine
TTITLE4=Dreoilín
TTITLE5=A Stór a Stór a Ghrá
TTITLE6=Gabhaim Molta Bride - Téanam Abhaile...
TTITLE7=Commin' o' the Fairy Folk
TTITLE8=Little Brigid Flynn
TTITLE9=Caoineadh an Spailpín
TTITLE10=Three Times Around The Sídh
TTITLE11=Óró mo Bhaidín - 18th Century Hungarian Dance
TTITLE12=Iníon na Phalaitínigh - Green Eyes
TTITLE13=Tír na nÓg
TTITLE14=Me a gar eur Goulmik - Niamh
EXTD=YEAR: 1999
EXTT0=
EXTT1=
EXTT2=
EXTT3=
EXTT4=
EXTT5=
EXTT6=
EXTT7=
EXTT8=
EXTT9=
EXTT10=
EXTT11=
EXTT12=
EXTT13=
EXTT14=
PLAYORDER=
